<svg width="245" height="36" viewBox="0 0 245 36" fill="none" xmlns="http://www.w3.org/2000/svg">
<g filter="url(#filter0_d)">
<path d="M18.692 19.66H10.18L8.612 24H5.924L12.98 4.596H15.92L22.948 24H20.26L18.692 19.66ZM17.964 17.588L14.436 7.732L10.908 17.588H17.964ZM31.7352 21.648L36.4952 8.656H39.2112L33.1912 24H30.2232L24.2032 8.656H26.9472L31.7352 21.648ZM54.3185 18.652C54.3185 19.548 54.0945 20.4067 53.6465 21.228C53.1985 22.0307 52.5358 22.7027 51.6585 23.244C50.7998 23.7853 49.7638 24.0933 48.5505 24.168V26.436H47.0385V24.168C45.3398 24.0187 43.9585 23.4773 42.8945 22.544C41.8305 21.592 41.2892 20.388 41.2705 18.932H43.9865C44.0612 19.716 44.3505 20.3973 44.8545 20.976C45.3772 21.5547 46.1052 21.9187 47.0385 22.068V15.068C45.7878 14.7507 44.7798 14.424 44.0145 14.088C43.2492 13.752 42.5958 13.2293 42.0545 12.52C41.5132 11.8107 41.2425 10.8587 41.2425 9.664C41.2425 8.152 41.7652 6.90133 42.8105 5.912C43.8745 4.92267 45.2838 4.372 47.0385 4.26V1.936H48.5505V4.26C50.1372 4.39067 51.4158 4.904 52.3865 5.8C53.3572 6.67733 53.9172 7.82533 54.0665 9.244H51.3505C51.2572 8.59067 50.9678 8.00267 50.4825 7.48C49.9972 6.93867 49.3532 6.584 48.5505 6.416V13.248C49.7825 13.5653 50.7812 13.892 51.5465 14.228C52.3305 14.5453 52.9838 15.0587 53.5065 15.768C54.0478 16.4773 54.3185 17.4387 54.3185 18.652ZM43.8465 9.524C43.8465 10.4387 44.1172 11.1387 44.6585 11.624C45.1998 12.1093 45.9932 12.5107 47.0385 12.828V6.36C46.0678 6.45333 45.2932 6.77067 44.7145 7.312C44.1358 7.83467 43.8465 8.572 43.8465 9.524ZM48.5505 22.096C49.5585 21.984 50.3425 21.62 50.9025 21.004C51.4812 20.388 51.7705 19.6507 51.7705 18.792C51.7705 17.8773 51.4905 17.1773 50.9305 16.692C50.3705 16.188 49.5772 15.7867 48.5505 15.488V22.096ZM66.7525 8.376C67.9098 8.376 68.9551 8.628 69.8885 9.132C70.8218 9.61733 71.5498 10.3547 72.0725 11.344C72.6138 12.3333 72.8845 13.5373 72.8845 14.956V24H70.3645V15.32C70.3645 13.7893 69.9818 12.6227 69.2165 11.82C68.4511 10.9987 67.4058 10.588 66.0805 10.588C64.7365 10.588 63.6631 11.008 62.8605 11.848C62.0765 12.688 61.6845 13.9107 61.6845 15.516V24H59.1365V3.28H61.6845V10.84C62.1885 10.056 62.8791 9.44933 63.7565 9.02C64.6525 8.59067 65.6511 8.376 66.7525 8.376ZM91.0466 15.74C91.0466 16.2253 91.0186 16.7387 90.9626 17.28H78.6986C78.792 18.792 79.3053 19.9773 80.2386 20.836C81.1906 21.676 82.3386 22.096 83.6826 22.096C84.784 22.096 85.6986 21.844 86.4266 21.34C87.1733 20.8173 87.696 20.1267 87.9946 19.268H90.7386C90.328 20.7427 89.5066 21.9467 88.2746 22.88C87.0426 23.7947 85.512 24.252 83.6826 24.252C82.2266 24.252 80.92 23.9253 79.7626 23.272C78.624 22.6187 77.728 21.6947 77.0746 20.5C76.4213 19.2867 76.0946 17.8867 76.0946 16.3C76.0946 14.7133 76.412 13.3227 77.0466 12.128C77.6813 10.9333 78.568 10.0187 79.7066 9.384C80.864 8.73067 82.1893 8.404 83.6826 8.404C85.1386 8.404 86.4266 8.72133 87.5466 9.356C88.6666 9.99067 89.5253 10.868 90.1226 11.988C90.7386 13.0893 91.0466 14.34 91.0466 15.74ZM88.4146 15.208C88.4146 14.2373 88.2 13.4067 87.7706 12.716C87.3413 12.0067 86.7533 11.4747 86.0066 11.12C85.2786 10.7467 84.4666 10.56 83.5706 10.56C82.2826 10.56 81.1813 10.9707 80.2666 11.792C79.3706 12.6133 78.8573 13.752 78.7266 15.208H88.4146ZM102.978 24L96.9579 17.224V24H94.4099V3.28H96.9579V15.46L102.866 8.656H106.422L99.1979 16.3L106.45 24H102.978Z" fill="black" fill-opacity="0.88"/>
<path d="M129.333 10.196C129.333 11.82 128.773 13.1733 127.653 14.256C126.552 15.32 124.862 15.852 122.585 15.852H118.833V24H116.285V4.484H122.585C124.788 4.484 126.458 5.016 127.597 6.08C128.754 7.144 129.333 8.516 129.333 10.196ZM122.585 13.752C124.004 13.752 125.049 13.444 125.721 12.828C126.393 12.212 126.729 11.3347 126.729 10.196C126.729 7.788 125.348 6.584 122.585 6.584H118.833V13.752H122.585ZM131.548 16.272C131.548 14.704 131.865 13.332 132.5 12.156C133.134 10.9613 134.002 10.0373 135.104 9.384C136.224 8.73067 137.465 8.404 138.828 8.404C140.172 8.404 141.338 8.69333 142.328 9.272C143.317 9.85067 144.054 10.5787 144.54 11.456V8.656H147.116V24H144.54V21.144C144.036 22.04 143.28 22.7867 142.272 23.384C141.282 23.9627 140.125 24.252 138.8 24.252C137.437 24.252 136.205 23.916 135.104 23.244C134.002 22.572 133.134 21.6293 132.5 20.416C131.865 19.2027 131.548 17.8213 131.548 16.272ZM144.54 16.3C144.54 15.1427 144.306 14.1347 143.84 13.276C143.373 12.4173 142.738 11.764 141.936 11.316C141.152 10.8493 140.284 10.616 139.332 10.616C138.38 10.616 137.512 10.84 136.728 11.288C135.944 11.736 135.318 12.3893 134.852 13.248C134.385 14.1067 134.152 15.1147 134.152 16.272C134.152 17.448 134.385 18.4747 134.852 19.352C135.318 20.2107 135.944 20.8733 136.728 21.34C137.512 21.788 138.38 22.012 139.332 22.012C140.284 22.012 141.152 21.788 141.936 21.34C142.738 20.8733 143.373 20.2107 143.84 19.352C144.306 18.4747 144.54 17.4573 144.54 16.3ZM153.97 11.148C154.418 10.2707 155.052 9.58933 155.874 9.104C156.714 8.61867 157.731 8.376 158.926 8.376V11.008H158.254C155.398 11.008 153.97 12.5573 153.97 15.656V24H151.422V8.656H153.97V11.148ZM160.915 16.272C160.915 14.704 161.232 13.332 161.867 12.156C162.502 10.9613 163.37 10.0373 164.471 9.384C165.591 8.73067 166.832 8.404 168.195 8.404C169.539 8.404 170.706 8.69333 171.695 9.272C172.684 9.85067 173.422 10.5787 173.907 11.456V8.656H176.483V24H173.907V21.144C173.403 22.04 172.647 22.7867 171.639 23.384C170.65 23.9627 169.492 24.252 168.167 24.252C166.804 24.252 165.572 23.916 164.471 23.244C163.37 22.572 162.502 21.6293 161.867 20.416C161.232 19.2027 160.915 17.8213 160.915 16.272ZM173.907 16.3C173.907 15.1427 173.674 14.1347 173.207 13.276C172.74 12.4173 172.106 11.764 171.303 11.316C170.519 10.8493 169.651 10.616 168.699 10.616C167.747 10.616 166.879 10.84 166.095 11.288C165.311 11.736 164.686 12.3893 164.219 13.248C163.752 14.1067 163.519 15.1147 163.519 16.272C163.519 17.448 163.752 18.4747 164.219 19.352C164.686 20.2107 165.311 20.8733 166.095 21.34C166.879 21.788 167.747 22.012 168.699 22.012C169.651 22.012 170.519 21.788 171.303 21.34C172.106 20.8733 172.74 20.2107 173.207 19.352C173.674 18.4747 173.907 17.4573 173.907 16.3ZM186.221 24.252C185.045 24.252 183.99 24.056 183.057 23.664C182.123 23.2533 181.386 22.6933 180.845 21.984C180.303 21.256 180.005 20.4253 179.949 19.492H182.581C182.655 20.2573 183.01 20.8827 183.645 21.368C184.298 21.8533 185.147 22.096 186.193 22.096C187.163 22.096 187.929 21.8813 188.489 21.452C189.049 21.0227 189.329 20.4813 189.329 19.828C189.329 19.156 189.03 18.6613 188.433 18.344C187.835 18.008 186.911 17.6813 185.661 17.364C184.522 17.0653 183.589 16.7667 182.861 16.468C182.151 16.1507 181.535 15.6933 181.013 15.096C180.509 14.48 180.257 13.6773 180.257 12.688C180.257 11.904 180.49 11.1853 180.957 10.532C181.423 9.87867 182.086 9.36533 182.945 8.992C183.803 8.6 184.783 8.404 185.885 8.404C187.583 8.404 188.955 8.83333 190.001 9.692C191.046 10.5507 191.606 11.7267 191.681 13.22H189.133C189.077 12.4173 188.75 11.7733 188.153 11.288C187.574 10.8027 186.79 10.56 185.801 10.56C184.886 10.56 184.158 10.756 183.617 11.148C183.075 11.54 182.805 12.0533 182.805 12.688C182.805 13.192 182.963 13.612 183.281 13.948C183.617 14.2653 184.027 14.5267 184.513 14.732C185.017 14.9187 185.707 15.1333 186.585 15.376C187.686 15.6747 188.582 15.9733 189.273 16.272C189.963 16.552 190.551 16.9813 191.037 17.56C191.541 18.1387 191.802 18.8947 191.821 19.828C191.821 20.668 191.587 21.424 191.121 22.096C190.654 22.768 189.991 23.3 189.133 23.692C188.293 24.0653 187.322 24.252 186.221 24.252ZM203.034 8.376C204.191 8.376 205.236 8.628 206.17 9.132C207.103 9.61733 207.831 10.3547 208.354 11.344C208.895 12.3333 209.166 13.5373 209.166 14.956V24H206.646V15.32C206.646 13.7893 206.263 12.6227 205.498 11.82C204.732 10.9987 203.687 10.588 202.362 10.588C201.018 10.588 199.944 11.008 199.142 11.848C198.358 12.688 197.966 13.9107 197.966 15.516V24H195.418V3.28H197.966V10.84C198.47 10.056 199.16 9.44933 200.038 9.02C200.934 8.59067 201.932 8.376 203.034 8.376ZM212.376 16.272C212.376 14.704 212.693 13.332 213.328 12.156C213.963 10.9613 214.831 10.0373 215.932 9.384C217.052 8.73067 218.293 8.404 219.656 8.404C221 8.404 222.167 8.69333 223.156 9.272C224.145 9.85067 224.883 10.5787 225.368 11.456V8.656H227.944V24H225.368V21.144C224.864 22.04 224.108 22.7867 223.1 23.384C222.111 23.9627 220.953 24.252 219.628 24.252C218.265 24.252 217.033 23.916 215.932 23.244C214.831 22.572 213.963 21.6293 213.328 20.416C212.693 19.2027 212.376 17.8213 212.376 16.272ZM225.368 16.3C225.368 15.1427 225.135 14.1347 224.668 13.276C224.201 12.4173 223.567 11.764 222.764 11.316C221.98 10.8493 221.112 10.616 220.16 10.616C219.208 10.616 218.34 10.84 217.556 11.288C216.772 11.736 216.147 12.3893 215.68 13.248C215.213 14.1067 214.98 15.1147 214.98 16.272C214.98 17.448 215.213 18.4747 215.68 19.352C216.147 20.2107 216.772 20.8733 217.556 21.34C218.34 21.788 219.208 22.012 220.16 22.012C221.112 22.012 221.98 21.788 222.764 21.34C223.567 20.8733 224.201 20.2107 224.668 19.352C225.135 18.4747 225.368 17.4573 225.368 16.3ZM234.798 11.148C235.246 10.2707 235.88 9.58933 236.702 9.104C237.542 8.61867 238.559 8.376 239.754 8.376V11.008H239.082C236.226 11.008 234.798 12.5573 234.798 15.656V24H232.25V8.656H234.798V11.148Z" fill="#49A6E9"/>
</g>
<defs>
<filter id="filter0_d" x="0.923996" y="0.935999" width="243.83" height="34.5" filterUnits="userSpaceOnUse" color-interpolation-filters="sRGB">
<feFlood flood-opacity="0" result="BackgroundImageFix"/>
<feColorMatrix in="SourceAlpha" type="matrix" values="0 0 0 0 0 0 0 0 0 0 0 0 0 0 0 0 0 0 127 0"/>
<feOffset dy="4"/>
<feGaussianBlur stdDeviation="2.5"/>
<feColorMatrix type="matrix" values="0 0 0 0 0 0 0 0 0 0 0 0 0 0 0 0 0 0 0.5 0"/>
<feBlend mode="normal" in2="BackgroundImageFix" result="effect1_dropShadow"/>
<feBlend mode="normal" in="SourceGraphic" in2="effect1_dropShadow" result="shape"/>
</filter>
</defs>
</svg>
